<?xml version="1.0" encoding="UTF-8" standalone="no"?>
<!-- Created with Inkscape (http://www.inkscape.org/) -->

<svg
   xmlns:dc="http://purl.org/dc/elements/1.1/"
   xmlns:cc="http://creativecommons.org/ns#"
   xmlns:rdf="http://www.w3.org/1999/02/22-rdf-syntax-ns#"
   xmlns:svg="http://www.w3.org/2000/svg"
   xmlns="http://www.w3.org/2000/svg"
   xmlns:sodipodi="http://sodipodi.sourceforge.net/DTD/sodipodi-0.dtd"
   xmlns:inkscape="http://www.inkscape.org/namespaces/inkscape"
   width="744.09448819"
   height="1052.3622047"
   id="svg2"
   version="1.1"
   inkscape:version="0.48.3.1 r9886"
   sodipodi:docname="New document 1">
  <defs
     id="defs4" />
  <sodipodi:namedview
     id="base"
     pagecolor="#ffffff"
     bordercolor="#666666"
     borderopacity="1.0"
     inkscape:pageopacity="0.0"
     inkscape:pageshadow="2"
     inkscape:zoom="0.98994949"
     inkscape:cx="405.84394"
     inkscape:cy="555.95519"
     inkscape:document-units="px"
     inkscape:current-layer="layer1"
     showgrid="false"
     inkscape:window-width="1366"
     inkscape:window-height="748"
     inkscape:window-x="0"
     inkscape:window-y="0"
     inkscape:window-maximized="1" />
  <metadata
     id="metadata7">
    <rdf:RDF>
      <cc:Work
         rdf:about="">
        <dc:format>image/svg+xml</dc:format>
        <dc:type
           rdf:resource="http://purl.org/dc/dcmitype/StillImage" />
        <dc:title></dc:title>
      </cc:Work>
    </rdf:RDF>
  </metadata>
  <g
     inkscape:label="Layer 1"
     inkscape:groupmode="layer"
     id="layer1">
    <path
       style="fill:none;stroke:#000000;stroke-width:1px;stroke-linecap:butt;stroke-linejoin:miter;stroke-opacity:1"
       d="M 200,658.07647 C 488.57143,213.79075 488.57143,213.79075 488.57143,213.79075 L 535.71429,720.93361 64.285714,418.07647 667.14286,359.50504 z"
       id="path2985"
       inkscape:connector-curvature="0" />
    <path
       style="fill:#ff0000;fill-opacity:1;stroke:none"
       d="M 168.47805,483.54087 C 113.37414,448.10926 69.338427,418.95909 70.620907,418.76271 78.690363,417.52709 368.89686,389.81762 370.3465,390.14434 c 1.57462,0.35488 -95.51521,152.04853 -100.00843,156.25366 -1.23642,1.15717 -27.7309,-15.19239 -101.86002,-62.85713 z"
       id="path2987"
       inkscape:connector-curvature="0" />
    <path
       style="fill:#ff0000;fill-opacity:1;stroke:none"
       d="M 427.2384,649.69839 C 369.88126,612.7799 323.1433,582.11812 323.37626,581.5611 c 0.23296,-0.55702 42.34011,-27.80623 93.57143,-60.5538 69.81111,-44.62395 93.24201,-58.9402 93.52367,-57.14286 0.63936,4.07994 23.19562,247.62886 23.19562,250.45236 0,1.46306 -0.48215,2.62546 -1.07143,2.58312 -0.58929,-0.0423 -48,-30.28303 -105.35715,-67.20153 z"
       id="path2989"
       inkscape:connector-curvature="0" />
    <path
       style="fill:#ff0000;fill-opacity:1;stroke:none"
       d="m 512.2384,455.70831 c 0,-0.62978 -1.62412,-18.37072 -3.60915,-39.42431 -1.98504,-21.05359 -3.23693,-38.65149 -2.78199,-39.10643 0.7937,-0.7937 153.84429,-16.08085 154.49383,-15.43131 0.17401,0.17402 -7.84576,5.52026 -17.82172,11.88055 -9.97596,6.36029 -43.37025,27.6882 -74.20954,47.39536 -30.83928,19.70715 -56.07143,35.31592 -56.07143,34.68614 z"
       id="path2991"
       inkscape:connector-curvature="0" />
    <path
       style="fill:#ff0000;fill-opacity:1;stroke:none"
       d="m 379.61936,384.34266 c 0.91718,-2.32224 107.50478,-165.81335 107.86605,-165.45208 0.68437,0.68437 14.69481,154.33498 14.12482,154.90498 -0.64523,0.64523 -112.20498,11.69616 -118.41945,11.73044 -2.22619,0.0129 -3.83333,-0.52023 -3.57142,-1.18334 l 0,0 z"
       id="path2993"
       inkscape:connector-curvature="0" />
    <path
       style="fill:#d40000;fill-opacity:1;stroke:none"
       d="m 207.40071,649.4769 c 1.67195,-2.85646 62.20124,-96.01629 62.76329,-96.59815 0.27984,-0.28969 10.82917,6.07697 23.44295,14.14815 l 22.93415,14.67486 -4.65135,3.12775 c -12.74557,8.57064 -103.90362,66.43311 -104.66044,66.43311 -0.4806,0 -0.40347,-0.80357 0.1714,-1.78572 z"
       id="path2995"
       inkscape:connector-curvature="0" />
    <path
       style="fill:#d40000;fill-opacity:1;stroke:none"
       d="m 295.80231,565.07899 c -12.56729,-8.13583 -22.71532,-15.45786 -22.55117,-16.27117 0.16415,-0.81332 23.52911,-37.23656 51.92213,-80.94055 41.56997,-63.9866 52.21655,-79.4618 54.6679,-79.4618 1.67431,0 29.64781,-2.60796 62.16333,-5.79548 32.51553,-3.18751 59.47439,-5.44023 59.90858,-5.00603 1.03384,1.03384 8.29984,80.48629 7.4248,81.18881 -1.9538,1.56857 -187.89065,120.00598 -189.17024,120.497 -0.83364,0.3199 -11.79804,-6.07495 -24.36533,-14.21078 l 0,0 z"
       id="path2997"
       inkscape:connector-curvature="0" />
    <path
       style="fill:#d40000;fill-opacity:1;stroke:none"
       d="m 380.83697,384.85533 c -1.04161,-0.46244 15.69817,-26.61196 77.00639,-120.29312 25.81966,-39.45335 28.57271,-43.57143 29.12873,-43.57143 0.25068,0 1.01979,5.54464 1.70912,12.32143 1.67318,16.44878 9.39436,100.95038 10.78531,118.03571 0.60769,7.46429 1.28762,15.51322 1.51098,17.88652 l 0.40611,4.31509 -7.71945,0.87301 c -12.57725,1.42238 -69.29204,7.0933 -86.64802,8.66393 -21.5553,1.95067 -25.21298,2.19781 -26.17917,1.76886 z"
       id="path2999"
       inkscape:connector-curvature="0" />
  </g>
</svg>
